<svg width="154" height="25" viewBox="0 0 154 25" fill="none" xmlns="http://www.w3.org/2000/svg">
<path d="M17.9651 24.2461L16.5371 19.9621H7.05111L5.62311 24.2461H0.557109L8.88711 0.446092H14.7011L23.0651 24.2461H17.9651ZM8.54711 15.5761H15.0751L11.8111 5.85209L8.54711 15.5761ZM35.066 6.77009C37.3554 6.77009 39.3047 7.64276 40.914 9.38809C42.546 11.1108 43.362 13.2301 43.362 15.7461C43.362 18.2621 42.546 20.3928 40.914 22.1381C39.3047 23.8608 37.3554 24.7221 35.066 24.7221C32.686 24.7221 30.85 23.8948 29.558 22.2401V24.2461H25.172V0.446092H29.558V9.25209C30.85 7.59743 32.686 6.77009 35.066 6.77009ZM30.884 19.2141C31.768 20.0981 32.89 20.5401 34.25 20.5401C35.61 20.5401 36.732 20.0981 37.616 19.2141C38.5227 18.3074 38.976 17.1514 38.976 15.7461C38.976 14.3408 38.5227 13.1961 37.616 12.3121C36.732 11.4054 35.61 10.9521 34.25 10.9521C32.89 10.9521 31.768 11.4054 30.884 12.3121C30 13.1961 29.558 14.3408 29.558 15.7461C29.558 17.1514 30 18.3074 30.884 19.2141ZM60.9392 22.1381C59.1939 23.8608 57.0633 24.7221 54.5472 24.7221C52.0312 24.7221 49.9006 23.8608 48.1552 22.1381C46.4326 20.3928 45.5712 18.2621 45.5712 15.7461C45.5712 13.2301 46.4326 11.1108 48.1552 9.38809C49.9006 7.64276 52.0312 6.77009 54.5472 6.77009C57.0633 6.77009 59.1939 7.64276 60.9392 9.38809C62.6846 11.1108 63.5573 13.2301 63.5573 15.7461C63.5573 18.2621 62.6846 20.3928 60.9392 22.1381ZM51.2492 19.1121C52.1332 19.9961 53.2326 20.4381 54.5472 20.4381C55.8619 20.4381 56.9612 19.9961 57.8453 19.1121C58.7293 18.2281 59.1713 17.1061 59.1713 15.7461C59.1713 14.3861 58.7293 13.2641 57.8453 12.3801C56.9612 11.4961 55.8619 11.0541 54.5472 11.0541C53.2326 11.0541 52.1332 11.4961 51.2492 12.3801C50.3879 13.2641 49.9572 14.3861 49.9572 15.7461C49.9572 17.1061 50.3879 18.2281 51.2492 19.1121ZM77.8628 7.24609H82.2487V24.2461H77.8628V22.3421C76.7974 23.9288 75.1087 24.7221 72.7967 24.7221C70.9381 24.7221 69.3967 24.0988 68.1727 22.8521C66.9714 21.6054 66.3707 19.8828 66.3707 17.6841V7.24609H70.7567V17.1401C70.7567 18.2734 71.0627 19.1461 71.6747 19.7581C72.2867 20.3474 73.1027 20.6421 74.1227 20.6421C75.2561 20.6421 76.1628 20.2908 76.8428 19.5881C77.5228 18.8854 77.8628 17.8314 77.8628 16.4261V7.24609ZM95.9898 11.4621H92.1478V18.5341C92.1478 19.1234 92.2951 19.5541 92.5898 19.8261C92.8845 20.0981 93.3151 20.2568 93.8818 20.3021C94.4485 20.3248 95.1511 20.3134 95.9898 20.2681V24.2461C92.9751 24.5861 90.8445 24.3028 89.5978 23.3961C88.3738 22.4894 87.7618 20.8688 87.7618 18.5341V11.4621H84.8038V7.24609H87.7618V3.81209L92.1478 2.48609V7.24609H95.9898V11.4621ZM126.65 6.77009C128.599 6.77009 130.152 7.40476 131.308 8.67409C132.486 9.94343 133.076 11.6434 133.076 13.7741V24.2461H128.69V14.0801C128.69 13.0601 128.44 12.2668 127.942 11.7001C127.443 11.1334 126.74 10.8501 125.834 10.8501C124.836 10.8501 124.054 11.1788 123.488 11.8361C122.944 12.4934 122.672 13.4454 122.672 14.6921V24.2461H118.286V14.0801C118.286 13.0601 118.036 12.2668 117.538 11.7001C117.039 11.1334 116.336 10.8501 115.43 10.8501C114.455 10.8501 113.673 11.1788 113.084 11.8361C112.517 12.4934 112.234 13.4454 112.234 14.6921V24.2461H107.848V7.24609H112.234V9.04809C113.254 7.52943 114.829 6.77009 116.96 6.77009C119.045 6.77009 120.586 7.58609 121.584 9.21809C122.717 7.58609 124.406 6.77009 126.65 6.77009ZM140.507 17.5481C141.096 19.6788 142.694 20.7441 145.301 20.7441C146.978 20.7441 148.248 20.1774 149.109 19.0441L152.645 21.0841C150.968 23.5094 148.497 24.7221 145.233 24.7221C142.422 24.7221 140.167 23.8721 138.467 22.1721C136.767 20.4721 135.917 18.3301 135.917 15.7461C135.917 13.1848 136.756 11.0541 138.433 9.35409C140.11 7.63143 142.264 6.77009 144.893 6.77009C147.386 6.77009 149.438 7.63143 151.047 9.35409C152.679 11.0768 153.495 13.2074 153.495 15.7461C153.495 16.3128 153.438 16.9134 153.325 17.5481H140.507ZM140.439 14.1481H149.109C148.86 12.9921 148.338 12.1308 147.545 11.5641C146.774 10.9974 145.89 10.7141 144.893 10.7141C143.714 10.7141 142.74 11.0201 141.969 11.6321C141.198 12.2214 140.688 13.0601 140.439 14.1481Z" fill="#070707"/>
</svg>
