<svg width="143" height="26" viewBox="0 0 143 26" fill="none" xmlns="http://www.w3.org/2000/svg">
<path d="M12.8753 25.7201C9.29401 25.7201 6.33601 24.5301 4.00134 22.1501C1.66668 19.7701 0.499342 16.8348 0.499342 13.3441C0.499342 9.83081 1.66668 6.89547 4.00134 4.53814C6.33601 2.15814 9.29401 0.968139 12.8753 0.968139C15.0287 0.968139 17.012 1.47814 18.8253 2.49814C20.6613 3.49547 22.0893 4.85547 23.1093 6.57814L19.0633 8.92414C18.474 7.85881 17.6353 7.03147 16.5473 6.44214C15.4593 5.83014 14.2353 5.52414 12.8753 5.52414C10.5633 5.52414 8.69334 6.24947 7.26534 7.70014C5.86001 9.15081 5.15734 11.0321 5.15734 13.3441C5.15734 15.6335 5.86001 17.5035 7.26534 18.9541C8.69334 20.4048 10.5633 21.1301 12.8753 21.1301C14.2353 21.1301 15.4593 20.8355 16.5473 20.2461C17.658 19.6341 18.4967 18.8068 19.0633 17.7641L23.1093 20.1101C22.0893 21.8328 20.6727 23.2041 18.8593 24.2241C17.046 25.2215 15.0513 25.7201 12.8753 25.7201ZM40.3712 23.1361C38.6259 24.8588 36.4952 25.7201 33.9792 25.7201C31.4632 25.7201 29.3326 24.8588 27.5872 23.1361C25.8646 21.3908 25.0032 19.2601 25.0032 16.7441C25.0032 14.2281 25.8646 12.1088 27.5872 10.3861C29.3326 8.64081 31.4632 7.76814 33.9792 7.76814C36.4952 7.76814 38.6259 8.64081 40.3712 10.3861C42.1166 12.1088 42.9892 14.2281 42.9892 16.7441C42.9892 19.2601 42.1166 21.3908 40.3712 23.1361ZM30.6812 20.1101C31.5652 20.9941 32.6646 21.4361 33.9792 21.4361C35.2939 21.4361 36.3932 20.9941 37.2772 20.1101C38.1612 19.2261 38.6032 18.1041 38.6032 16.7441C38.6032 15.3841 38.1612 14.2621 37.2772 13.3781C36.3932 12.4941 35.2939 12.0521 33.9792 12.0521C32.6646 12.0521 31.5652 12.4941 30.6812 13.3781C29.8199 14.2621 29.3892 15.3841 29.3892 16.7441C29.3892 18.1041 29.8199 19.2261 30.6812 20.1101ZM55.5267 7.76814C57.3854 7.76814 58.9154 8.39147 60.1167 9.63814C61.3407 10.8848 61.9527 12.6075 61.9527 14.8061V25.2441H57.5667V15.3501C57.5667 14.2168 57.2607 13.3555 56.6487 12.7661C56.0367 12.1541 55.2207 11.8481 54.2007 11.8481C53.0674 11.8481 52.1607 12.1995 51.4807 12.9021C50.8007 13.6048 50.4607 14.6588 50.4607 16.0641V25.2441H46.0747V8.24414H50.4607V10.1481C51.5261 8.56147 53.2147 7.76814 55.5267 7.76814ZM75.4218 12.4601H71.5798V19.5321C71.5798 20.1215 71.7271 20.5521 72.0218 20.8241C72.3165 21.0961 72.7471 21.2548 73.3138 21.3001C73.8805 21.3228 74.5831 21.3115 75.4218 21.2661V25.2441C72.4071 25.5841 70.2765 25.3008 69.0298 24.3941C67.8058 23.4875 67.1938 21.8668 67.1938 19.5321V12.4601H64.2358V8.24414H67.1938V4.81014L71.5798 3.48414V8.24414H75.4218V12.4601ZM90.903 8.24414H95.289V25.2441H90.903V23.2381C89.5883 24.8928 87.741 25.7201 85.361 25.7201C83.0943 25.7201 81.145 24.8588 79.513 23.1361C77.9036 21.3908 77.099 19.2601 77.099 16.7441C77.099 14.2281 77.9036 12.1088 79.513 10.3861C81.145 8.64081 83.0943 7.76814 85.361 7.76814C87.741 7.76814 89.5883 8.59547 90.903 10.2501V8.24414ZM82.811 20.2121C83.695 21.0961 84.817 21.5381 86.177 21.5381C87.537 21.5381 88.659 21.0961 89.543 20.2121C90.4496 19.3055 90.903 18.1495 90.903 16.7441C90.903 15.3388 90.4496 14.1941 89.543 13.3101C88.659 12.4035 87.537 11.9501 86.177 11.9501C84.817 11.9501 83.695 12.4035 82.811 13.3101C81.927 14.1941 81.485 15.3388 81.485 16.7441C81.485 18.1495 81.927 19.3055 82.811 20.2121ZM107.358 25.7201C104.797 25.7201 102.655 24.8588 100.932 23.1361C99.2322 21.4135 98.3822 19.2828 98.3822 16.7441C98.3822 14.2055 99.2322 12.0748 100.932 10.3521C102.655 8.62947 104.797 7.76814 107.358 7.76814C109.013 7.76814 110.52 8.16481 111.88 8.95814C113.24 9.75147 114.271 10.8168 114.974 12.1541L111.2 14.3641C110.86 13.6615 110.339 13.1061 109.636 12.6981C108.956 12.2901 108.185 12.0861 107.324 12.0861C106.009 12.0861 104.921 12.5281 104.06 13.4121C103.199 14.2735 102.768 15.3841 102.768 16.7441C102.768 18.0815 103.199 19.1921 104.06 20.0761C104.921 20.9375 106.009 21.3681 107.324 21.3681C108.208 21.3681 108.99 21.1755 109.67 20.7901C110.373 20.3821 110.894 19.8268 111.234 19.1241L115.042 21.3001C114.294 22.6375 113.24 23.7141 111.88 24.5301C110.52 25.3235 109.013 25.7201 107.358 25.7201ZM127.086 12.4601H123.244V19.5321C123.244 20.1215 123.391 20.5521 123.686 20.8241C123.981 21.0961 124.411 21.2548 124.978 21.3001C125.545 21.3228 126.247 21.3115 127.086 21.2661V25.2441C124.071 25.5841 121.941 25.3008 120.694 24.3941C119.47 23.4875 118.858 21.8668 118.858 19.5321V12.4601H115.9V8.24414H118.858V4.81014L123.244 3.48414V8.24414H127.086V12.4601ZM133.859 13.0721C133.859 13.5255 134.154 13.8995 134.743 14.1941C135.355 14.4661 136.092 14.7155 136.953 14.9421C137.814 15.1461 138.676 15.4181 139.537 15.7581C140.398 16.0755 141.124 16.6195 141.713 17.3901C142.325 18.1608 142.631 19.1241 142.631 20.2801C142.631 22.0255 141.974 23.3741 140.659 24.3261C139.367 25.2555 137.746 25.7201 135.797 25.7201C132.306 25.7201 129.926 24.3715 128.657 21.6741L132.465 19.5321C132.964 21.0055 134.074 21.7421 135.797 21.7421C137.361 21.7421 138.143 21.2548 138.143 20.2801C138.143 19.8268 137.837 19.4641 137.225 19.1921C136.636 18.8975 135.91 18.6368 135.049 18.4101C134.188 18.1835 133.326 17.9001 132.465 17.5601C131.604 17.2201 130.867 16.6875 130.255 15.9621C129.666 15.2141 129.371 14.2848 129.371 13.1741C129.371 11.4968 129.983 10.1821 131.207 9.23014C132.454 8.25547 133.995 7.76814 135.831 7.76814C137.214 7.76814 138.472 8.08547 139.605 8.72014C140.738 9.33214 141.634 10.2161 142.291 11.3721L138.551 13.4121C138.007 12.2561 137.1 11.6781 135.831 11.6781C135.264 11.6781 134.788 11.8028 134.403 12.0521C134.04 12.3015 133.859 12.6415 133.859 13.0721Z" fill="#070707"/>
</svg>
