<svg width="216" height="17" viewBox="0 0 216 17" fill="none" xmlns="http://www.w3.org/2000/svg">
<path d="M0.0701005 0.54453H1.7441V13.1445H0.0701005V0.54453ZM19.3871 4.14453H21.0251L18.2351 13.1445H16.6331L14.5271 6.48453L12.4211 13.1445H10.8191L8.02905 4.14453H9.66705L11.6471 10.9845L13.7711 4.14453H15.2831L17.4071 11.0025L19.3871 4.14453ZM29.8811 12.0105C28.9571 12.9225 27.8351 13.3785 26.5151 13.3785C25.1951 13.3785 24.0731 12.9225 23.1491 12.0105C22.2371 11.0985 21.7811 9.97653 21.7811 8.64453C21.7811 7.31253 22.2371 6.19053 23.1491 5.27853C24.0731 4.36653 25.1951 3.91053 26.5151 3.91053C27.8351 3.91053 28.9571 4.36653 29.8811 5.27853C30.8051 6.19053 31.2671 7.31253 31.2671 8.64453C31.2671 9.97653 30.8051 11.0985 29.8811 12.0105ZM26.5151 11.8485C27.4151 11.8485 28.1711 11.5425 28.7831 10.9305C29.3951 10.3185 29.7011 9.55653 29.7011 8.64453C29.7011 7.73253 29.3951 6.97053 28.7831 6.35853C28.1711 5.74653 27.4151 5.44053 26.5151 5.44053C25.6271 5.44053 24.8771 5.74653 24.2651 6.35853C23.6531 6.97053 23.3471 7.73253 23.3471 8.64453C23.3471 9.55653 23.6531 10.3185 24.2651 10.9305C24.8771 11.5425 25.6271 11.8485 26.5151 11.8485ZM34.6792 5.65653C35.1952 4.54053 36.1312 3.98253 37.4872 3.98253V5.62053C36.7192 5.58453 36.0592 5.78853 35.5072 6.23253C34.9552 6.67653 34.6792 7.39053 34.6792 8.37453V13.1445H33.1132V4.14453H34.6792V5.65653ZM46.6334 13.1445H44.6894L40.5854 8.87853V13.1445H39.0194V0.54453H40.5854V8.12253L44.4734 4.14453H46.4894L42.1874 8.50053L46.6334 13.1445ZM53.3817 2.50653C53.0817 2.50653 52.8297 2.40453 52.6257 2.20053C52.4217 1.99653 52.3197 1.75053 52.3197 1.46253C52.3197 1.17453 52.4217 0.92853 52.6257 0.72453C52.8297 0.508531 53.0817 0.400531 53.3817 0.400531C53.6697 0.400531 53.9157 0.508531 54.1197 0.72453C54.3237 0.92853 54.4257 1.17453 54.4257 1.46253C54.4257 1.75053 54.3237 1.99653 54.1197 2.20053C53.9157 2.40453 53.6697 2.50653 53.3817 2.50653ZM52.5897 13.1445V4.14453H54.1557V13.1445H52.5897ZM61.0268 3.91053C62.0828 3.91053 62.9288 4.24653 63.5648 4.91853C64.2008 5.57853 64.5188 6.47853 64.5188 7.61853V13.1445H62.9528V7.70853C62.9528 6.97653 62.7548 6.41253 62.3588 6.01653C61.9628 5.60853 61.4168 5.40453 60.7208 5.40453C59.9408 5.40453 59.3108 5.65053 58.8308 6.14253C58.3508 6.62253 58.1108 7.36653 58.1108 8.37453V13.1445H56.5448V4.14453H58.1108V5.44053C58.7468 4.42053 59.7188 3.91053 61.0268 3.91053ZM72.555 6.57453C72.555 6.92253 72.729 7.20453 73.077 7.42053C73.425 7.62453 73.845 7.79253 74.337 7.92453C74.829 8.04453 75.321 8.18853 75.813 8.35653C76.305 8.51253 76.725 8.78853 77.073 9.18453C77.421 9.56853 77.595 10.0665 77.595 10.6785C77.595 11.4945 77.277 12.1485 76.641 12.6405C76.017 13.1325 75.213 13.3785 74.229 13.3785C73.353 13.3785 72.603 13.1865 71.979 12.8025C71.355 12.4185 70.911 11.9085 70.647 11.2725L71.997 10.4985C72.141 10.9305 72.411 11.2725 72.807 11.5245C73.203 11.7765 73.677 11.9025 74.229 11.9025C74.745 11.9025 75.171 11.8065 75.507 11.6145C75.843 11.4105 76.011 11.0985 76.011 10.6785C76.011 10.3305 75.837 10.0545 75.489 9.85053C75.141 9.63453 74.721 9.46653 74.229 9.34653C73.737 9.21453 73.245 9.06453 72.753 8.89653C72.261 8.72853 71.841 8.45253 71.493 8.06853C71.145 7.68453 70.971 7.19253 70.971 6.59253C70.971 5.81253 71.271 5.17053 71.871 4.66653C72.483 4.16253 73.245 3.91053 74.157 3.91053C74.889 3.91053 75.537 4.07853 76.101 4.41453C76.677 4.73853 77.109 5.19453 77.397 5.78253L76.083 6.52053C75.759 5.75253 75.117 5.36853 74.157 5.36853C73.713 5.36853 73.335 5.47653 73.023 5.69253C72.711 5.89653 72.555 6.19053 72.555 6.57453ZM85.5712 4.14453H87.1372V13.1445H85.5712V11.8485C84.9352 12.8685 83.9632 13.3785 82.6552 13.3785C81.5992 13.3785 80.7532 13.0485 80.1172 12.3885C79.4812 11.7165 79.1632 10.8105 79.1632 9.67053V4.14453H80.7292V9.58053C80.7292 10.3125 80.9272 10.8825 81.3232 11.2905C81.7192 11.6865 82.2652 11.8845 82.9612 11.8845C83.7412 11.8845 84.3712 11.6445 84.8512 11.1645C85.3312 10.6725 85.5712 9.92253 85.5712 8.91453V4.14453ZM93.7514 13.3785C92.3954 13.3785 91.2674 12.9285 90.3674 12.0285C89.4674 11.1165 89.0174 9.98853 89.0174 8.64453C89.0174 7.30053 89.4674 6.17853 90.3674 5.27853C91.2674 4.36653 92.3954 3.91053 93.7514 3.91053C94.6394 3.91053 95.4374 4.12653 96.1454 4.55853C96.8534 4.97853 97.3814 5.54853 97.7294 6.26853L96.4154 7.02453C96.1874 6.54453 95.8334 6.16053 95.3534 5.87253C94.8854 5.58453 94.3514 5.44053 93.7514 5.44053C92.8514 5.44053 92.0954 5.74653 91.4834 6.35853C90.8834 6.97053 90.5834 7.73253 90.5834 8.64453C90.5834 9.54453 90.8834 10.3005 91.4834 10.9125C92.0954 11.5245 92.8514 11.8305 93.7514 11.8305C94.3514 11.8305 94.8914 11.6925 95.3714 11.4165C95.8514 11.1285 96.2174 10.7445 96.4694 10.2645L97.8014 11.0385C97.4174 11.7465 96.8654 12.3165 96.1454 12.7485C95.4254 13.1685 94.6274 13.3785 93.7514 13.3785ZM103.83 3.91053C104.886 3.91053 105.732 4.24653 106.368 4.91853C107.004 5.57853 107.322 6.47853 107.322 7.61853V13.1445H105.756V7.70853C105.756 6.97653 105.558 6.41253 105.162 6.01653C104.766 5.60853 104.22 5.40453 103.524 5.40453C102.744 5.40453 102.114 5.65053 101.634 6.14253C101.154 6.62253 100.914 7.36653 100.914 8.37453V13.1445H99.3476V0.54453H100.914V5.44053C101.55 4.42053 102.522 3.91053 103.83 3.91053ZM118.976 3.91053C120.236 3.91053 121.31 4.37253 122.198 5.29653C123.086 6.20853 123.53 7.32453 123.53 8.64453C123.53 9.96453 123.086 11.0865 122.198 12.0105C121.31 12.9225 120.236 13.3785 118.976 13.3785C117.488 13.3785 116.354 12.7845 115.574 11.5965V16.7445H114.008V4.14453H115.574V5.69253C116.354 4.50453 117.488 3.91053 118.976 3.91053ZM118.778 11.8665C119.678 11.8665 120.434 11.5605 121.046 10.9485C121.658 10.3245 121.964 9.55653 121.964 8.64453C121.964 7.73253 121.658 6.97053 121.046 6.35853C120.434 5.73453 119.678 5.42253 118.778 5.42253C117.866 5.42253 117.104 5.73453 116.492 6.35853C115.88 6.97053 115.574 7.73253 115.574 8.64453C115.574 9.55653 115.88 10.3245 116.492 10.9485C117.104 11.5605 117.866 11.8665 118.778 11.8665ZM126.964 5.65653C127.48 4.54053 128.416 3.98253 129.772 3.98253V5.62053C129.004 5.58453 128.344 5.78853 127.792 6.23253C127.24 6.67653 126.964 7.39053 126.964 8.37453V13.1445H125.398V4.14453H126.964V5.65653ZM138.408 12.0105C137.484 12.9225 136.362 13.3785 135.042 13.3785C133.722 13.3785 132.6 12.9225 131.676 12.0105C130.764 11.0985 130.308 9.97653 130.308 8.64453C130.308 7.31253 130.764 6.19053 131.676 5.27853C132.6 4.36653 133.722 3.91053 135.042 3.91053C136.362 3.91053 137.484 4.36653 138.408 5.27853C139.332 6.19053 139.794 7.31253 139.794 8.64453C139.794 9.97653 139.332 11.0985 138.408 12.0105ZM135.042 11.8485C135.942 11.8485 136.698 11.5425 137.31 10.9305C137.922 10.3185 138.228 9.55653 138.228 8.64453C138.228 7.73253 137.922 6.97053 137.31 6.35853C136.698 5.74653 135.942 5.44053 135.042 5.44053C134.154 5.44053 133.404 5.74653 132.792 6.35853C132.18 6.97053 131.874 7.73253 131.874 8.64453C131.874 9.55653 132.18 10.3185 132.792 10.9305C133.404 11.5425 134.154 11.8485 135.042 11.8485ZM149.111 4.14453H150.659V12.7665C150.659 14.0985 150.209 15.1305 149.309 15.8625C148.409 16.6065 147.329 16.9785 146.069 16.9785C145.061 16.9785 144.191 16.7865 143.459 16.4025C142.727 16.0305 142.175 15.4905 141.803 14.7825L143.171 14.0085C143.663 15.0165 144.641 15.5205 146.105 15.5205C147.041 15.5205 147.773 15.2745 148.301 14.7825C148.841 14.2905 149.111 13.6185 149.111 12.7665V11.4885C148.319 12.6885 147.191 13.2885 145.727 13.2885C144.443 13.2885 143.357 12.8325 142.469 11.9205C141.581 11.0085 141.137 9.89853 141.137 8.59053C141.137 7.28253 141.581 6.17853 142.469 5.27853C143.357 4.36653 144.443 3.91053 145.727 3.91053C147.203 3.91053 148.331 4.50453 149.111 5.69253V4.14453ZM143.621 10.8765C144.233 11.4885 144.995 11.7945 145.907 11.7945C146.819 11.7945 147.581 11.4885 148.193 10.8765C148.805 10.2645 149.111 9.50253 149.111 8.59053C149.111 7.69053 148.805 6.93453 148.193 6.32253C147.581 5.71053 146.819 5.40453 145.907 5.40453C144.995 5.40453 144.233 5.71053 143.621 6.32253C143.009 6.93453 142.703 7.69053 142.703 8.59053C142.703 9.50253 143.009 10.2645 143.621 10.8765ZM154.597 5.65653C155.113 4.54053 156.049 3.98253 157.405 3.98253V5.62053C156.637 5.58453 155.977 5.78853 155.425 6.23253C154.873 6.67653 154.597 7.39053 154.597 8.37453V13.1445H153.031V4.14453H154.597V5.65653ZM165.897 4.14453H167.463V13.1445H165.897V11.5965C165.117 12.7845 163.983 13.3785 162.495 13.3785C161.235 13.3785 160.161 12.9225 159.273 12.0105C158.385 11.0865 157.941 9.96453 157.941 8.64453C157.941 7.32453 158.385 6.20853 159.273 5.29653C160.161 4.37253 161.235 3.91053 162.495 3.91053C163.983 3.91053 165.117 4.50453 165.897 5.69253V4.14453ZM162.693 11.8665C163.605 11.8665 164.367 11.5605 164.979 10.9485C165.591 10.3245 165.897 9.55653 165.897 8.64453C165.897 7.73253 165.591 6.97053 164.979 6.35853C164.367 5.73453 163.605 5.42253 162.693 5.42253C161.793 5.42253 161.037 5.73453 160.425 6.35853C159.813 6.97053 159.507 7.73253 159.507 8.64453C159.507 9.55653 159.813 10.3245 160.425 10.9485C161.037 11.5605 161.793 11.8665 162.693 11.8665ZM179.556 3.91053C180.564 3.91053 181.38 4.24053 182.004 4.90053C182.628 5.54853 182.94 6.43053 182.94 7.54653V13.1445H181.374V7.60053C181.374 6.90453 181.194 6.36453 180.834 5.98053C180.474 5.59653 179.994 5.40453 179.394 5.40453C178.722 5.40453 178.182 5.63253 177.774 6.08853C177.378 6.53253 177.18 7.21653 177.18 8.14053V13.1445H175.614V7.60053C175.614 6.90453 175.44 6.36453 175.092 5.98053C174.756 5.59653 174.294 5.40453 173.706 5.40453C173.046 5.40453 172.494 5.63253 172.05 6.08853C171.618 6.54453 171.402 7.22853 171.402 8.14053V13.1445H169.836V4.14453H171.402V5.35053C172.014 4.39053 172.908 3.91053 174.084 3.91053C175.296 3.91053 176.178 4.42053 176.73 5.44053C177.354 4.42053 178.296 3.91053 179.556 3.91053ZM186.461 6.57453C186.461 6.92253 186.635 7.20453 186.983 7.42053C187.331 7.62453 187.751 7.79253 188.243 7.92453C188.735 8.04453 189.227 8.18853 189.719 8.35653C190.211 8.51253 190.631 8.78853 190.979 9.18453C191.327 9.56853 191.501 10.0665 191.501 10.6785C191.501 11.4945 191.183 12.1485 190.547 12.6405C189.923 13.1325 189.119 13.3785 188.135 13.3785C187.259 13.3785 186.509 13.1865 185.885 12.8025C185.261 12.4185 184.817 11.9085 184.553 11.2725L185.903 10.4985C186.047 10.9305 186.317 11.2725 186.713 11.5245C187.109 11.7765 187.583 11.9025 188.135 11.9025C188.651 11.9025 189.077 11.8065 189.413 11.6145C189.749 11.4105 189.917 11.0985 189.917 10.6785C189.917 10.3305 189.743 10.0545 189.395 9.85053C189.047 9.63453 188.627 9.46653 188.135 9.34653C187.643 9.21453 187.151 9.06453 186.659 8.89653C186.167 8.72853 185.747 8.45253 185.399 8.06853C185.051 7.68453 184.877 7.19253 184.877 6.59253C184.877 5.81253 185.177 5.17053 185.777 4.66653C186.389 4.16253 187.151 3.91053 188.063 3.91053C188.795 3.91053 189.443 4.07853 190.007 4.41453C190.583 4.73853 191.015 5.19453 191.303 5.78253L189.989 6.52053C189.665 5.75253 189.023 5.36853 188.063 5.36853C187.619 5.36853 187.241 5.47653 186.929 5.69253C186.617 5.89653 186.461 6.19053 186.461 6.57453ZM205.307 4.14453H206.873V13.1445H205.307V11.5965C204.527 12.7845 203.393 13.3785 201.905 13.3785C200.645 13.3785 199.571 12.9225 198.683 12.0105C197.795 11.0865 197.351 9.96453 197.351 8.64453C197.351 7.32453 197.795 6.20853 198.683 5.29653C199.571 4.37253 200.645 3.91053 201.905 3.91053C203.393 3.91053 204.527 4.50453 205.307 5.69253V4.14453ZM202.103 11.8665C203.015 11.8665 203.777 11.5605 204.389 10.9485C205.001 10.3245 205.307 9.55653 205.307 8.64453C205.307 7.73253 205.001 6.97053 204.389 6.35853C203.777 5.73453 203.015 5.42253 202.103 5.42253C201.203 5.42253 200.447 5.73453 199.835 6.35853C199.223 6.97053 198.917 7.73253 198.917 8.64453C198.917 9.55653 199.223 10.3245 199.835 10.9485C200.447 11.5605 201.203 11.8665 202.103 11.8665ZM210.578 6.57453C210.578 6.92253 210.752 7.20453 211.1 7.42053C211.448 7.62453 211.868 7.79253 212.36 7.92453C212.852 8.04453 213.344 8.18853 213.836 8.35653C214.328 8.51253 214.748 8.78853 215.096 9.18453C215.444 9.56853 215.618 10.0665 215.618 10.6785C215.618 11.4945 215.3 12.1485 214.664 12.6405C214.04 13.1325 213.236 13.3785 212.252 13.3785C211.376 13.3785 210.626 13.1865 210.002 12.8025C209.378 12.4185 208.934 11.9085 208.67 11.2725L210.02 10.4985C210.164 10.9305 210.434 11.2725 210.83 11.5245C211.226 11.7765 211.7 11.9025 212.252 11.9025C212.768 11.9025 213.194 11.8065 213.53 11.6145C213.866 11.4105 214.034 11.0985 214.034 10.6785C214.034 10.3305 213.86 10.0545 213.512 9.85053C213.164 9.63453 212.744 9.46653 212.252 9.34653C211.76 9.21453 211.268 9.06453 210.776 8.89653C210.284 8.72853 209.864 8.45253 209.516 8.06853C209.168 7.68453 208.994 7.19253 208.994 6.59253C208.994 5.81253 209.294 5.17053 209.894 4.66653C210.506 4.16253 211.268 3.91053 212.18 3.91053C212.912 3.91053 213.56 4.07853 214.124 4.41453C214.7 4.73853 215.132 5.19453 215.42 5.78253L214.106 6.52053C213.782 5.75253 213.14 5.36853 212.18 5.36853C211.736 5.36853 211.358 5.47653 211.046 5.69253C210.734 5.89653 210.578 6.19053 210.578 6.57453Z" fill="#070707"/>
</svg>
