<svg width="130" height="26" viewBox="0 0 130 26" fill="none" xmlns="http://www.w3.org/2000/svg">
<path d="M9.83222 1.13359C12.1216 1.13359 14.0482 1.90426 15.6122 3.44559C17.1762 4.98693 17.9582 6.87959 17.9582 9.12359C17.9582 11.3676 17.1762 13.2603 15.6122 14.8016C14.0482 16.3429 12.1216 17.1136 9.83222 17.1136H5.65022V24.9336H0.958223V1.13359H9.83222ZM9.83222 12.7276C10.8296 12.7276 11.6569 12.3876 12.3142 11.7076C12.9716 11.0049 13.3002 10.1436 13.3002 9.12359C13.3002 8.08093 12.9716 7.21959 12.3142 6.53959C11.6569 5.85959 10.8296 5.51959 9.83222 5.51959H5.65022V12.7276H9.83222ZM34.164 22.8256C32.4187 24.5483 30.288 25.4096 27.772 25.4096C25.256 25.4096 23.1253 24.5483 21.38 22.8256C19.6573 21.0803 18.796 18.9496 18.796 16.4336C18.796 13.9176 19.6573 11.7983 21.38 10.0756C23.1253 8.33026 25.256 7.45759 27.772 7.45759C30.288 7.45759 32.4187 8.33026 34.164 10.0756C35.9093 11.7983 36.782 13.9176 36.782 16.4336C36.782 18.9496 35.9093 21.0803 34.164 22.8256ZM24.474 19.7996C25.358 20.6836 26.4573 21.1256 27.772 21.1256C29.0867 21.1256 30.186 20.6836 31.07 19.7996C31.954 18.9156 32.396 17.7936 32.396 16.4336C32.396 15.0736 31.954 13.9516 31.07 13.0676C30.186 12.1836 29.0867 11.7416 27.772 11.7416C26.4573 11.7416 25.358 12.1836 24.474 13.0676C23.6127 13.9516 23.182 15.0736 23.182 16.4336C23.182 17.7936 23.6127 18.9156 24.474 19.7996ZM44.2535 10.8576C44.6615 9.76959 45.3302 8.95359 46.2595 8.40959C47.2115 7.86559 48.2655 7.59359 49.4215 7.59359V12.4896C48.0842 12.3309 46.8828 12.6029 45.8175 13.3056C44.7748 14.0083 44.2535 15.1756 44.2535 16.8076V24.9336H39.8675V7.93359H44.2535V10.8576ZM62.1755 12.1496H58.3335V19.2216C58.3335 19.8109 58.4808 20.2416 58.7755 20.5136C59.0702 20.7856 59.5008 20.9443 60.0675 20.9896C60.6342 21.0123 61.3368 21.0009 62.1755 20.9556V24.9336C59.1608 25.2736 57.0302 24.9903 55.7835 24.0836C54.5595 23.1769 53.9475 21.5563 53.9475 19.2216V12.1496H50.9895V7.93359H53.9475V4.49959L58.3335 3.17359V7.93359H62.1755V12.1496ZM73.5838 4.87359C71.1811 4.69226 69.9798 5.65559 69.9798 7.76359V7.93359H73.5838V12.1496H69.9798V24.9336H65.5938V12.1496H63.1458V7.93359H65.5938V7.76359C65.5938 5.36093 66.2625 3.53626 67.5998 2.28959C68.9371 1.04293 70.9318 0.498926 73.5838 0.657592V4.87359ZM89.4472 22.8256C87.7019 24.5483 85.5712 25.4096 83.0552 25.4096C80.5392 25.4096 78.4085 24.5483 76.6632 22.8256C74.9405 21.0803 74.0792 18.9496 74.0792 16.4336C74.0792 13.9176 74.9405 11.7983 76.6632 10.0756C78.4085 8.33026 80.5392 7.45759 83.0552 7.45759C85.5712 7.45759 87.7019 8.33026 89.4472 10.0756C91.1925 11.7983 92.0652 13.9176 92.0652 16.4336C92.0652 18.9496 91.1925 21.0803 89.4472 22.8256ZM79.7572 19.7996C80.6412 20.6836 81.7405 21.1256 83.0552 21.1256C84.3699 21.1256 85.4692 20.6836 86.3532 19.7996C87.2372 18.9156 87.6792 17.7936 87.6792 16.4336C87.6792 15.0736 87.2372 13.9516 86.3532 13.0676C85.4692 12.1836 84.3699 11.7416 83.0552 11.7416C81.7405 11.7416 80.6412 12.1836 79.7572 13.0676C78.8959 13.9516 78.4652 15.0736 78.4652 16.4336C78.4652 17.7936 78.8959 18.9156 79.7572 19.7996ZM95.1507 24.9336V0.113593H99.5367V24.9336H95.1507ZM105.727 5.89359C105.002 5.89359 104.367 5.63293 103.823 5.11159C103.302 4.56759 103.041 3.93293 103.041 3.20759C103.041 2.48226 103.302 1.84759 103.823 1.30359C104.367 0.759592 105.002 0.487592 105.727 0.487592C106.475 0.487592 107.11 0.759592 107.631 1.30359C108.175 1.84759 108.447 2.48226 108.447 3.20759C108.447 3.93293 108.175 4.56759 107.631 5.11159C107.11 5.63293 106.475 5.89359 105.727 5.89359ZM103.551 24.9336V7.93359H107.937V24.9336H103.551ZM126.435 22.8256C124.69 24.5483 122.559 25.4096 120.043 25.4096C117.527 25.4096 115.397 24.5483 113.651 22.8256C111.929 21.0803 111.067 18.9496 111.067 16.4336C111.067 13.9176 111.929 11.7983 113.651 10.0756C115.397 8.33026 117.527 7.45759 120.043 7.45759C122.559 7.45759 124.69 8.33026 126.435 10.0756C128.181 11.7983 129.053 13.9176 129.053 16.4336C129.053 18.9496 128.181 21.0803 126.435 22.8256ZM116.745 19.7996C117.629 20.6836 118.729 21.1256 120.043 21.1256C121.358 21.1256 122.457 20.6836 123.341 19.7996C124.225 18.9156 124.667 17.7936 124.667 16.4336C124.667 15.0736 124.225 13.9516 123.341 13.0676C122.457 12.1836 121.358 11.7416 120.043 11.7416C118.729 11.7416 117.629 12.1836 116.745 13.0676C115.884 13.9516 115.453 15.0736 115.453 16.4336C115.453 17.7936 115.884 18.9156 116.745 19.7996Z" fill="#070707"/>
</svg>
