<svg width="78" height="26" viewBox="0 0 78 26" fill="none" xmlns="http://www.w3.org/2000/svg">
<path d="M10.0617 25.4799C7.70435 25.4799 5.72102 24.9586 4.11169 23.9159C2.50235 22.8506 1.36902 21.4112 0.711685 19.5979L4.72369 17.2519C5.65302 19.6772 7.47769 20.8899 10.1977 20.8899C11.5124 20.8899 12.4757 20.6519 13.0877 20.1759C13.6997 19.6999 14.0057 19.0992 14.0057 18.3739C14.0057 17.5352 13.6317 16.8892 12.8837 16.4359C12.1357 15.9599 10.7984 15.4499 8.87169 14.9059C7.80635 14.5886 6.89969 14.2712 6.15169 13.9539C5.42635 13.6366 4.68969 13.2172 3.94169 12.6959C3.21635 12.1519 2.66102 11.4719 2.27569 10.6559C1.89035 9.83991 1.69769 8.88791 1.69769 7.7999C1.69769 5.64657 2.45702 3.93524 3.97569 2.66591C5.51702 1.37391 7.36435 0.727905 9.51769 0.727905C11.4444 0.727905 13.133 1.2039 14.5837 2.1559C16.057 3.08524 17.2017 4.38857 18.0177 6.0659L14.0737 8.34391C13.1217 6.30391 11.603 5.2839 9.51769 5.2839C8.54302 5.2839 7.77235 5.51057 7.20569 5.96391C6.66169 6.39457 6.38969 6.96124 6.38969 7.6639C6.38969 8.41191 6.69569 9.02391 7.30769 9.49991C7.94235 9.95324 9.14369 10.4519 10.9117 10.9959C11.637 11.2226 12.181 11.4039 12.5437 11.5399C12.929 11.6532 13.439 11.8459 14.0737 12.1179C14.731 12.3672 15.2297 12.6052 15.5697 12.8319C15.9324 13.0586 16.3404 13.3646 16.7937 13.7499C17.247 14.1352 17.587 14.5319 17.8137 14.9399C18.063 15.3479 18.267 15.8466 18.4257 16.4359C18.607 17.0026 18.6977 17.6259 18.6977 18.3059C18.6977 20.5046 17.893 22.2499 16.2837 23.5419C14.697 24.8339 12.623 25.4799 10.0617 25.4799ZM37.228 25.0039H32.128L25.94 17.2859V25.0039H21.554V1.2039H25.94V15.4839L31.788 8.00391H37.024L30.19 16.4019L37.228 25.0039ZM41.5932 5.96391C40.8679 5.96391 40.2332 5.70324 39.6892 5.18191C39.1679 4.63791 38.9072 4.00324 38.9072 3.2779C38.9072 2.55257 39.1679 1.91791 39.6892 1.3739C40.2332 0.829905 40.8679 0.557905 41.5932 0.557905C42.3412 0.557905 42.9759 0.829905 43.4972 1.3739C44.0412 1.91791 44.3132 2.55257 44.3132 3.2779C44.3132 4.00324 44.0412 4.63791 43.4972 5.18191C42.9759 5.70324 42.3412 5.96391 41.5932 5.96391ZM39.4172 25.0039V8.00391H43.8032V25.0039H39.4172ZM47.8176 25.0039V0.183906H52.2036V25.0039H47.8176ZM56.218 25.0039V0.183906H60.604V25.0039H56.218ZM68.5316 12.8319C68.5316 13.2852 68.8263 13.6592 69.4156 13.9539C70.0276 14.2259 70.7643 14.4752 71.6256 14.7019C72.4869 14.9059 73.3483 15.1779 74.2096 15.5179C75.0709 15.8352 75.7963 16.3792 76.3856 17.1499C76.9976 17.9206 77.3036 18.8839 77.3036 20.0399C77.3036 21.7852 76.6463 23.1339 75.3316 24.0859C74.0396 25.0152 72.4189 25.4799 70.4696 25.4799C66.9789 25.4799 64.5989 24.1312 63.3296 21.4339L67.1376 19.2919C67.6363 20.7652 68.7469 21.5019 70.4696 21.5019C72.0336 21.5019 72.8156 21.0146 72.8156 20.0399C72.8156 19.5866 72.5096 19.2239 71.8976 18.9519C71.3083 18.6572 70.5829 18.3966 69.7216 18.1699C68.8603 17.9432 67.9989 17.6599 67.1376 17.3199C66.2763 16.9799 65.5396 16.4472 64.9276 15.7219C64.3383 14.9739 64.0436 14.0446 64.0436 12.9339C64.0436 11.2566 64.6556 9.94191 65.8796 8.98991C67.1263 8.01524 68.6676 7.52791 70.5036 7.52791C71.8863 7.52791 73.1443 7.84524 74.2776 8.47991C75.4109 9.09191 76.3063 9.97591 76.9636 11.1319L73.2236 13.1719C72.6796 12.0159 71.7729 11.4379 70.5036 11.4379C69.9369 11.4379 69.4609 11.5626 69.0756 11.8119C68.7129 12.0612 68.5316 12.4012 68.5316 12.8319Z" fill="#070707"/>
</svg>
