<svg width="154" height="39" viewBox="0 0 154 39" fill="none" xmlns="http://www.w3.org/2000/svg">
<path d="M9.11209 12.2389C8.23609 13.0429 7.10209 13.4449 5.71009 13.4449C4.31809 13.4449 3.17809 13.0429 2.29009 12.2389C1.41409 11.4229 0.976086 10.3369 0.976086 8.98094V0.610937H2.65009V8.90894C2.65009 9.79694 2.91409 10.5049 3.44209 11.0329C3.97009 11.5489 4.72609 11.8069 5.71009 11.8069C6.69409 11.8069 7.45009 11.5489 7.97809 11.0329C8.50609 10.5049 8.77009 9.79694 8.77009 8.90894V0.610937H10.4261V8.98094C10.4261 10.3369 9.98809 11.4229 9.11209 12.2389ZM21.7564 13.2109H19.8484L16.7524 8.24294L13.6564 13.2109H11.7664L15.8164 6.73094L12.0004 0.610937H13.8904L16.7524 5.20094L19.6144 0.610937H21.5044L17.7064 6.71294L21.7564 13.2109ZM27.9096 16.8109V0.250937H29.4756V16.8109H27.9096ZM44.6551 12.2389C43.7791 13.0429 42.6451 13.4449 41.2531 13.4449C39.8611 13.4449 38.7211 13.0429 37.8331 12.2389C36.9571 11.4229 36.5191 10.3369 36.5191 8.98094V0.610937H38.1931V8.90894C38.1931 9.79694 38.4571 10.5049 38.9851 11.0329C39.5131 11.5489 40.2691 11.8069 41.2531 11.8069C42.2371 11.8069 42.9931 11.5489 43.5211 11.0329C44.0491 10.5049 44.3131 9.79694 44.3131 8.90894V0.610937H45.9691V8.98094C45.9691 10.3369 45.5311 11.4229 44.6551 12.2389ZM48.5287 0.610937H50.2027V13.2109H48.5287V0.610937ZM64.6957 0.610937H66.2617V13.2109H64.6957V11.6629C63.9157 12.8509 62.7817 13.4449 61.2937 13.4449C60.0337 13.4449 58.9597 12.9889 58.0717 12.0769C57.1837 11.1529 56.7397 10.0309 56.7397 8.71094C56.7397 7.39094 57.1837 6.27494 58.0717 5.36294C58.9597 4.43894 60.0337 3.97694 61.2937 3.97694C62.7817 3.97694 63.9157 4.57094 64.6957 5.75894V0.610937ZM61.4917 11.9329C62.4037 11.9329 63.1657 11.6269 63.7777 11.0149C64.3897 10.3909 64.6957 9.62294 64.6957 8.71094C64.6957 7.79894 64.3897 7.03694 63.7777 6.42494C63.1657 5.80094 62.4037 5.48894 61.4917 5.48894C60.5917 5.48894 59.8357 5.80094 59.2237 6.42494C58.6117 7.03694 58.3057 7.79894 58.3057 8.71094C58.3057 9.62294 58.6117 10.3909 59.2237 11.0149C59.8357 11.6269 60.5917 11.9329 61.4917 11.9329ZM69.7323 9.43094C69.8883 10.2349 70.2543 10.8589 70.8303 11.3029C71.4183 11.7469 72.1383 11.9689 72.9903 11.9689C74.1783 11.9689 75.0423 11.5309 75.5823 10.6549L76.9143 11.4109C76.0383 12.7669 74.7183 13.4449 72.9543 13.4449C71.5263 13.4449 70.3623 13.0009 69.4623 12.1129C68.5743 11.2129 68.1303 10.0789 68.1303 8.71094C68.1303 7.35494 68.5683 6.22694 69.4443 5.32694C70.3203 4.42694 71.4543 3.97694 72.8463 3.97694C74.1663 3.97694 75.2403 4.44494 76.0683 5.38094C76.9083 6.30494 77.3283 7.42094 77.3283 8.72894C77.3283 8.95694 77.3103 9.19094 77.2743 9.43094H69.7323ZM72.8463 5.45294C72.0063 5.45294 71.3103 5.69294 70.7583 6.17294C70.2063 6.64094 69.8643 7.27094 69.7323 8.06294H75.7443C75.6123 7.21094 75.2763 6.56294 74.7363 6.11894C74.1963 5.67494 73.5663 5.45294 72.8463 5.45294ZM80.1269 6.64094C80.1269 6.98894 80.3009 7.27094 80.6489 7.48694C80.9969 7.69094 81.4169 7.85894 81.9089 7.99094C82.4009 8.11094 82.8929 8.25494 83.3849 8.42294C83.8769 8.57894 84.2969 8.85494 84.6449 9.25094C84.9929 9.63494 85.1669 10.1329 85.1669 10.7449C85.1669 11.5609 84.8489 12.2149 84.2129 12.7069C83.5889 13.1989 82.7849 13.4449 81.8009 13.4449C80.9249 13.4449 80.1749 13.2529 79.5509 12.8689C78.9269 12.4849 78.4829 11.9749 78.2189 11.3389L79.5689 10.5649C79.7129 10.9969 79.9829 11.3389 80.3789 11.5909C80.7749 11.8429 81.2489 11.9689 81.8009 11.9689C82.3169 11.9689 82.7429 11.8729 83.0789 11.6809C83.4149 11.4769 83.5829 11.1649 83.5829 10.7449C83.5829 10.3969 83.4089 10.1209 83.0609 9.91694C82.7129 9.70094 82.2929 9.53294 81.8009 9.41294C81.3089 9.28094 80.8169 9.13094 80.3249 8.96294C79.8329 8.79494 79.4129 8.51894 79.0649 8.13494C78.7169 7.75094 78.5429 7.25894 78.5429 6.65894C78.5429 5.87894 78.8429 5.23694 79.4429 4.73294C80.0549 4.22894 80.8169 3.97694 81.7289 3.97694C82.4609 3.97694 83.1089 4.14494 83.6729 4.48094C84.2489 4.80494 84.6809 5.26094 84.9689 5.84894L83.6549 6.58694C83.3309 5.81894 82.6889 5.43494 81.7289 5.43494C81.2849 5.43494 80.9069 5.54294 80.5949 5.75894C80.2829 5.96294 80.1269 6.25694 80.1269 6.64094ZM87.7251 2.57294C87.4251 2.57294 87.1731 2.47094 86.9691 2.26694C86.7651 2.06294 86.6631 1.81694 86.6631 1.52894C86.6631 1.24094 86.7651 0.994937 86.9691 0.790936C87.1731 0.574937 87.4251 0.466937 87.7251 0.466937C88.0131 0.466937 88.2591 0.574937 88.4631 0.790936C88.6671 0.994937 88.7691 1.24094 88.7691 1.52894C88.7691 1.81694 88.6671 2.06294 88.4631 2.26694C88.2591 2.47094 88.0131 2.57294 87.7251 2.57294ZM86.9331 13.2109V4.21094H88.4991V13.2109H86.9331ZM98.3582 4.21094H99.9062V12.8329C99.9062 14.1649 99.4562 15.1969 98.5562 15.9289C97.6562 16.6729 96.5762 17.0449 95.3162 17.0449C94.3082 17.0449 93.4382 16.8529 92.7062 16.4689C91.9742 16.0969 91.4222 15.5569 91.0502 14.8489L92.4182 14.0749C92.9102 15.0829 93.8882 15.5869 95.3522 15.5869C96.2882 15.5869 97.0202 15.3409 97.5482 14.8489C98.0882 14.3569 98.3582 13.6849 98.3582 12.8329V11.5549C97.5662 12.7549 96.4382 13.3549 94.9742 13.3549C93.6902 13.3549 92.6042 12.8989 91.7162 11.9869C90.8282 11.0749 90.3842 9.96494 90.3842 8.65694C90.3842 7.34894 90.8282 6.24494 91.7162 5.34494C92.6042 4.43294 93.6902 3.97694 94.9742 3.97694C96.4502 3.97694 97.5782 4.57094 98.3582 5.75894V4.21094ZM92.8682 10.9429C93.4802 11.5549 94.2422 11.8609 95.1542 11.8609C96.0662 11.8609 96.8282 11.5549 97.4402 10.9429C98.0522 10.3309 98.3582 9.56894 98.3582 8.65694C98.3582 7.75694 98.0522 7.00094 97.4402 6.38894C96.8282 5.77694 96.0662 5.47094 95.1542 5.47094C94.2422 5.47094 93.4802 5.77694 92.8682 6.38894C92.2562 7.00094 91.9502 7.75694 91.9502 8.65694C91.9502 9.56894 92.2562 10.3309 92.8682 10.9429ZM106.761 3.97694C107.817 3.97694 108.663 4.31294 109.299 4.98494C109.935 5.64494 110.253 6.54494 110.253 7.68494V13.2109H108.687V7.77494C108.687 7.04294 108.489 6.47894 108.093 6.08294C107.697 5.67494 107.151 5.47094 106.455 5.47094C105.675 5.47094 105.045 5.71694 104.565 6.20894C104.085 6.68894 103.845 7.43294 103.845 8.44094V13.2109H102.279V4.21094H103.845V5.50694C104.481 4.48694 105.453 3.97694 106.761 3.97694ZM113.537 9.43094C113.693 10.2349 114.059 10.8589 114.635 11.3029C115.223 11.7469 115.943 11.9689 116.795 11.9689C117.983 11.9689 118.847 11.5309 119.387 10.6549L120.719 11.4109C119.843 12.7669 118.523 13.4449 116.759 13.4449C115.331 13.4449 114.167 13.0009 113.267 12.1129C112.379 11.2129 111.935 10.0789 111.935 8.71094C111.935 7.35494 112.373 6.22694 113.249 5.32694C114.125 4.42694 115.259 3.97694 116.651 3.97694C117.971 3.97694 119.045 4.44494 119.873 5.38094C120.713 6.30494 121.133 7.42094 121.133 8.72894C121.133 8.95694 121.115 9.19094 121.079 9.43094H113.537ZM116.651 5.45294C115.811 5.45294 115.115 5.69294 114.563 6.17294C114.011 6.64094 113.669 7.27094 113.537 8.06294H119.549C119.417 7.21094 119.081 6.56294 118.541 6.11894C118.001 5.67494 117.371 5.45294 116.651 5.45294ZM124.499 5.72294C125.015 4.60694 125.951 4.04894 127.307 4.04894V5.68694C126.539 5.65094 125.879 5.85494 125.327 6.29894C124.775 6.74294 124.499 7.45694 124.499 8.44094V13.2109H122.933V4.21094H124.499V5.72294ZM0.436086 35.2109V33.8429L4.88209 29.3069C6.07009 28.1189 6.66409 27.0989 6.66409 26.2469C6.66409 25.5389 6.44809 24.9869 6.01609 24.5909C5.58409 24.1949 5.05609 23.9969 4.43209 23.9969C3.24409 23.9969 2.38009 24.5609 1.84009 25.6889L0.436086 24.8609C0.832086 24.0449 1.37809 23.4269 2.07409 23.0069C2.78209 22.5869 3.56209 22.3769 4.41409 22.3769C5.47009 22.3769 6.38809 22.7249 7.16809 23.4209C7.94809 24.1169 8.33809 25.0529 8.33809 26.2289C8.33809 27.5009 7.58809 28.8869 6.08809 30.3869L2.86609 33.5909H8.57209V35.2109H0.436086ZM19.0259 31.2509V32.8169H17.4959V35.2109H15.8219V32.8169H9.39587V31.2509L13.9139 22.6109H15.7139L11.1959 31.2509H15.8219V27.6869H17.4959V31.2509H19.0259ZM31.3753 26.2109H33.0493L29.3773 35.7689C28.9933 36.7889 28.4533 37.5629 27.7573 38.0909C27.0733 38.6309 26.2813 38.8709 25.3813 38.8109V37.3529C26.4853 37.4369 27.2953 36.8249 27.8113 35.5169L27.9733 35.1749L24.0493 26.2109H25.7233L28.7833 33.2669L31.3753 26.2109ZM35.1034 31.4309C35.2594 32.2349 35.6254 32.8589 36.2014 33.3029C36.7894 33.7469 37.5094 33.9689 38.3614 33.9689C39.5494 33.9689 40.4134 33.5309 40.9534 32.6549L42.2854 33.4109C41.4094 34.7669 40.0894 35.4449 38.3254 35.4449C36.8974 35.4449 35.7334 35.0009 34.8334 34.1129C33.9454 33.2129 33.5014 32.0789 33.5014 30.7109C33.5014 29.3549 33.9394 28.2269 34.8154 27.3269C35.6914 26.4269 36.8254 25.9769 38.2174 25.9769C39.5374 25.9769 40.6114 26.4449 41.4394 27.3809C42.2794 28.3049 42.6994 29.4209 42.6994 30.7289C42.6994 30.9569 42.6814 31.1909 42.6454 31.4309H35.1034ZM38.2174 27.4529C37.3774 27.4529 36.6814 27.6929 36.1294 28.1729C35.5774 28.6409 35.2354 29.2709 35.1034 30.0629H41.1154C40.9834 29.2109 40.6474 28.5629 40.1074 28.1189C39.5674 27.6749 38.9374 27.4529 38.2174 27.4529ZM51.9339 26.2109H53.4999V35.2109H51.9339V33.6629C51.1539 34.8509 50.0199 35.4449 48.5319 35.4449C47.2719 35.4449 46.1979 34.9889 45.3099 34.0769C44.4219 33.1529 43.9779 32.0309 43.9779 30.7109C43.9779 29.3909 44.4219 28.2749 45.3099 27.3629C46.1979 26.4389 47.2719 25.9769 48.5319 25.9769C50.0199 25.9769 51.1539 26.5709 51.9339 27.7589V26.2109ZM48.7299 33.9329C49.6419 33.9329 50.4039 33.6269 51.0159 33.0149C51.6279 32.3909 51.9339 31.6229 51.9339 30.7109C51.9339 29.7989 51.6279 29.0369 51.0159 28.4249C50.4039 27.8009 49.6419 27.4889 48.7299 27.4889C47.8299 27.4889 47.0739 27.8009 46.4619 28.4249C45.8499 29.0369 45.5439 29.7989 45.5439 30.7109C45.5439 31.6229 45.8499 32.3909 46.4619 33.0149C47.0739 33.6269 47.8299 33.9329 48.7299 33.9329ZM57.4386 27.7229C57.9546 26.6069 58.8906 26.0489 60.2466 26.0489V27.6869C59.4786 27.6509 58.8186 27.8549 58.2666 28.2989C57.7146 28.7429 57.4386 29.4569 57.4386 30.4409V35.2109H55.8726V26.2109H57.4386V27.7229ZM62.7948 28.6409C62.7948 28.9889 62.9688 29.2709 63.3168 29.4869C63.6648 29.6909 64.0848 29.8589 64.5768 29.9909C65.0688 30.1109 65.5608 30.2549 66.0528 30.4229C66.5448 30.5789 66.9648 30.8549 67.3128 31.2509C67.6608 31.6349 67.8348 32.1329 67.8348 32.7449C67.8348 33.5609 67.5168 34.2149 66.8808 34.7069C66.2568 35.1989 65.4528 35.4449 64.4688 35.4449C63.5928 35.4449 62.8428 35.2529 62.2188 34.8689C61.5948 34.4849 61.1508 33.9749 60.8868 33.3389L62.2368 32.5649C62.3808 32.9969 62.6508 33.3389 63.0468 33.5909C63.4428 33.8429 63.9168 33.9689 64.4688 33.9689C64.9848 33.9689 65.4108 33.8729 65.7468 33.6809C66.0828 33.4769 66.2508 33.1649 66.2508 32.7449C66.2508 32.3969 66.0768 32.1209 65.7288 31.9169C65.3808 31.7009 64.9608 31.5329 64.4688 31.4129C63.9768 31.2809 63.4848 31.1309 62.9928 30.9629C62.5008 30.7949 62.0808 30.5189 61.7328 30.1349C61.3848 29.7509 61.2108 29.2589 61.2108 28.6589C61.2108 27.8789 61.5108 27.2369 62.1108 26.7329C62.7228 26.2289 63.4848 25.9769 64.3968 25.9769C65.1288 25.9769 65.7768 26.1449 66.3408 26.4809C66.9168 26.8049 67.3488 27.2609 67.6368 27.8489L66.3228 28.5869C65.9988 27.8189 65.3568 27.4349 64.3968 27.4349C63.9528 27.4349 63.5748 27.5429 63.2628 27.7589C62.9508 27.9629 62.7948 28.2569 62.7948 28.6409ZM81.785 34.0769C80.861 34.9889 79.739 35.4449 78.419 35.4449C77.099 35.4449 75.977 34.9889 75.053 34.0769C74.141 33.1649 73.685 32.0429 73.685 30.7109C73.685 29.3789 74.141 28.2569 75.053 27.3449C75.977 26.4329 77.099 25.9769 78.419 25.9769C79.739 25.9769 80.861 26.4329 81.785 27.3449C82.709 28.2569 83.171 29.3789 83.171 30.7109C83.171 32.0429 82.709 33.1649 81.785 34.0769ZM78.419 33.9149C79.319 33.9149 80.075 33.6089 80.687 32.9969C81.299 32.3849 81.605 31.6229 81.605 30.7109C81.605 29.7989 81.299 29.0369 80.687 28.4249C80.075 27.8129 79.319 27.5069 78.419 27.5069C77.531 27.5069 76.781 27.8129 76.169 28.4249C75.557 29.0369 75.251 29.7989 75.251 30.7109C75.251 31.6229 75.557 32.3849 76.169 32.9969C76.781 33.6089 77.531 33.9149 78.419 33.9149ZM85.0171 35.2109V22.0709H86.5831V35.2109H85.0171ZM96.4242 22.6109H97.9902V35.2109H96.4242V33.6629C95.6442 34.8509 94.5102 35.4449 93.0222 35.4449C91.7622 35.4449 90.6882 34.9889 89.8002 34.0769C88.9122 33.1529 88.4682 32.0309 88.4682 30.7109C88.4682 29.3909 88.9122 28.2749 89.8002 27.3629C90.6882 26.4389 91.7622 25.9769 93.0222 25.9769C94.5102 25.9769 95.6442 26.5709 96.4242 27.7589V22.6109ZM93.2202 33.9329C94.1322 33.9329 94.8942 33.6269 95.5062 33.0149C96.1182 32.3909 96.4242 31.6229 96.4242 30.7109C96.4242 29.7989 96.1182 29.0369 95.5062 28.4249C94.8942 27.8009 94.1322 27.4889 93.2202 27.4889C92.3202 27.4889 91.5642 27.8009 90.9522 28.4249C90.3402 29.0369 90.0342 29.7989 90.0342 30.7109C90.0342 31.6229 90.3402 32.3909 90.9522 33.0149C91.5642 33.6269 92.3202 33.9329 93.2202 33.9329ZM102.703 33.3569L101.533 37.7309H100.183L100.903 33.3569H102.703ZM121.368 22.6109V35.2109H119.712V25.3649L115.59 32.2229H115.374L111.252 25.3829V35.2109H109.578V22.6109H111.468L115.482 29.2709L119.478 22.6109H121.368ZM124.692 24.5729C124.392 24.5729 124.14 24.4709 123.936 24.2669C123.732 24.0629 123.63 23.8169 123.63 23.5289C123.63 23.2409 123.732 22.9949 123.936 22.7909C124.14 22.5749 124.392 22.4669 124.692 22.4669C124.98 22.4669 125.226 22.5749 125.43 22.7909C125.634 22.9949 125.736 23.2409 125.736 23.5289C125.736 23.8169 125.634 24.0629 125.43 24.2669C125.226 24.4709 124.98 24.5729 124.692 24.5729ZM123.9 35.2109V26.2109H125.466V35.2109H123.9ZM132.337 25.9769C133.393 25.9769 134.239 26.3129 134.875 26.9849C135.511 27.6449 135.829 28.5449 135.829 29.6849V35.2109H134.263V29.7749C134.263 29.0429 134.065 28.4789 133.669 28.0829C133.273 27.6749 132.727 27.4709 132.031 27.4709C131.251 27.4709 130.621 27.7169 130.141 28.2089C129.661 28.6889 129.421 29.4329 129.421 30.4409V35.2109H127.855V26.2109H129.421V27.5069C130.057 26.4869 131.029 25.9769 132.337 25.9769ZM139.365 28.6409C139.365 28.9889 139.539 29.2709 139.887 29.4869C140.235 29.6909 140.655 29.8589 141.147 29.9909C141.639 30.1109 142.131 30.2549 142.623 30.4229C143.115 30.5789 143.535 30.8549 143.883 31.2509C144.231 31.6349 144.405 32.1329 144.405 32.7449C144.405 33.5609 144.087 34.2149 143.451 34.7069C142.827 35.1989 142.023 35.4449 141.039 35.4449C140.163 35.4449 139.413 35.2529 138.789 34.8689C138.165 34.4849 137.721 33.9749 137.457 33.3389L138.807 32.5649C138.951 32.9969 139.221 33.3389 139.617 33.5909C140.013 33.8429 140.487 33.9689 141.039 33.9689C141.555 33.9689 141.981 33.8729 142.317 33.6809C142.653 33.4769 142.821 33.1649 142.821 32.7449C142.821 32.3969 142.647 32.1209 142.299 31.9169C141.951 31.7009 141.531 31.5329 141.039 31.4129C140.547 31.2809 140.055 31.1309 139.563 30.9629C139.071 30.7949 138.651 30.5189 138.303 30.1349C137.955 29.7509 137.781 29.2589 137.781 28.6589C137.781 27.8789 138.081 27.2369 138.681 26.7329C139.293 26.2289 140.055 25.9769 140.967 25.9769C141.699 25.9769 142.347 26.1449 142.911 26.4809C143.487 26.8049 143.919 27.2609 144.207 27.8489L142.893 28.5869C142.569 27.8189 141.927 27.4349 140.967 27.4349C140.523 27.4349 140.145 27.5429 139.833 27.7589C139.521 27.9629 139.365 28.2569 139.365 28.6409ZM153.785 35.2109H151.841L147.737 30.9449V35.2109H146.171V22.6109H147.737V30.1889L151.625 26.2109H153.641L149.339 30.5669L153.785 35.2109Z" fill="#070707"/>
</svg>
